<svg width="73" height="73" viewBox="0 0 73 73" fill="none" xmlns="http://www.w3.org/2000/svg">
<path d="M0.547058 63.1515C0.547058 68.294 4.71556 72.4619 9.85744 72.4619H63.4427C68.5854 72.4619 72.7533 68.2934 72.7533 63.1515V9.56628C72.7533 4.42355 68.5848 0.255615 63.443 0.255615H9.85772C4.715 0.255615 0.547058 4.42412 0.547058 9.56599V63.1512V63.1515Z" fill="#563D7C"/>
<path d="M30.4896 32.195V21.9696H39.4903C40.3477 21.9696 41.1741 22.041 41.9701 22.184C42.766 22.3267 43.4703 22.5817 44.0827 22.9492C44.6947 23.3167 45.1847 23.827 45.5522 24.4799C45.9194 25.1332 46.1033 25.97 46.1033 26.9902C46.1033 28.8273 45.5522 30.154 44.4499 30.9703C43.3479 31.7869 41.9396 32.195 40.225 32.195H30.4896ZM20.8763 14.4994V58.218H42.062C44.0215 58.218 45.9299 57.9732 47.7872 57.4833C49.6445 56.9933 51.2977 56.2383 52.7469 55.2178C54.1958 54.1973 55.3491 52.8807 56.2063 51.2685C57.0637 49.6559 57.4922 47.7476 57.4922 45.5433C57.4922 42.8082 56.8288 40.4714 55.5023 38.5325C54.1755 36.5934 52.165 35.2361 49.4708 34.4605C51.4302 33.5218 52.9102 32.3174 53.9103 30.8479C54.9102 29.3784 55.4103 27.5416 55.4103 25.3371C55.4103 23.2961 55.0735 21.5818 54.4 20.1938C53.7264 18.8061 52.7773 17.6937 51.5526 16.8568C50.3282 16.02 48.8587 15.4178 47.1441 15.0505C45.4298 14.683 43.5315 14.4994 41.4497 14.4994H20.8763ZM30.4896 50.7478V38.7466H40.9598C43.0416 38.7466 44.7153 39.2261 45.9809 40.1856C47.2462 41.1449 47.8791 42.747 47.8791 44.9922C47.8791 46.1353 47.6851 47.074 47.2973 47.8088C46.9094 48.5435 46.389 49.1254 45.7358 49.5538C45.0829 49.9826 44.3275 50.2886 43.4703 50.4725C42.6129 50.6558 41.7151 50.7478 40.7761 50.7478H30.4896Z" fill="white"/>
</svg>
