<svg width="118" height="115" viewBox="0 0 118 115" fill="none" xmlns="http://www.w3.org/2000/svg">
<path d="M88.366 99.5226L58.8671 107.317L29.3677 99.5226L22.5605 27.1542H95.1741L88.366 99.5226Z" fill="#2062AF"/>
<path d="M58.867 33.0159V101.1L58.9337 101.118L82.806 94.8102L88.3161 33.0159H58.867Z" fill="#3C9CD7"/>
<path d="M58.8408 51.111L37.7274 59.7397L38.4276 68.2828L58.8408 59.718L80.5551 50.6077L81.4554 41.8685L58.8408 51.111Z" fill="white"/>
<path d="M37.7271 59.7397L38.4273 68.2828L58.8405 59.718V51.111L37.7271 59.7397Z" fill="url(#paint0_linear)"/>
<path d="M81.4553 41.8687L58.8406 51.111V59.7181L80.555 50.6078L81.4553 41.8687Z" fill="url(#paint1_linear)"/>
<path d="M37.7596 59.7397L38.46 68.2828L69.7814 68.3808L69.0808 79.7714L58.7743 82.6188L48.8666 80.1639L48.2663 73.0938H39.0604L40.2612 86.7429L58.8743 92.1435L77.3865 86.8409L79.7882 59.7397H37.7596Z" fill="url(#paint2_linear)"/>
<path opacity="0.05" d="M58.8408 59.7397H37.7274L38.4276 68.2828L58.8408 68.3468V59.7397ZM58.8408 82.5916L58.7407 82.619L48.8344 80.1642L48.2341 73.094H39.0284L40.229 86.7431L58.8408 92.1437V82.5916Z" fill="black"/>
<path d="M35.8259 41.8687H81.4554L80.5551 50.608H36.9265L35.8259 41.8687Z" fill="url(#paint3_linear)"/>
<path opacity="0.05" d="M58.8408 41.8687H35.8259L36.9265 50.608H58.8408V41.8687Z" fill="black"/>
<defs>
<linearGradient id="paint0_linear" x1="48.2838" y1="68.283" x2="48.2838" y2="51.1112" gradientUnits="userSpaceOnUse">
<stop offset="0.387" stop-color="#D1D3D4" stop-opacity="0"/>
<stop offset="1" stop-color="#D1D3D4"/>
</linearGradient>
<linearGradient id="paint1_linear" x1="70.1477" y1="59.7183" x2="70.1477" y2="41.8689" gradientUnits="userSpaceOnUse">
<stop offset="0.387" stop-color="#D1D3D4" stop-opacity="0"/>
<stop offset="1" stop-color="#D1D3D4"/>
</linearGradient>
<linearGradient id="paint2_linear" x1="37.7596" y1="75.9418" x2="79.788" y2="75.9418" gradientUnits="userSpaceOnUse">
<stop stop-color="#E8E7E5"/>
<stop offset="1" stop-color="white"/>
</linearGradient>
<linearGradient id="paint3_linear" x1="35.8259" y1="46.2383" x2="81.4552" y2="46.2383" gradientUnits="userSpaceOnUse">
<stop stop-color="#E8E7E5"/>
<stop offset="1" stop-color="white"/>
</linearGradient>
</defs>
</svg>
