<svg width="74" height="110" viewBox="0 0 74 110" fill="none" xmlns="http://www.w3.org/2000/svg">
<g clip-path="url(#clip0)">
<path d="M18.9744 109.713C28.9369 109.713 37.0224 101.593 37.0224 91.589V73.4649H18.9744C9.01197 73.4649 0.926483 81.5845 0.926483 91.589C0.926483 101.593 9.01197 109.713 18.9744 109.713Z" fill="#0ACF83"/>
<path d="M0.926483 55.3408C0.926483 45.3363 9.01197 37.2167 18.9744 37.2167H37.0224V73.4649H18.9744C9.01197 73.4649 0.926483 65.3453 0.926483 55.3408Z" fill="#A259FF"/>
<path d="M0.928772 19.0927C0.928772 9.08821 9.01426 0.968628 18.9767 0.968628H37.0247V37.2168H18.9767C9.01426 37.2168 0.928772 29.0972 0.928772 19.0927Z" fill="#F24E1E"/>
<path d="M37.0224 0.968628H55.0704C65.0328 0.968628 73.1183 9.08821 73.1183 19.0927C73.1183 29.0972 65.0328 37.2168 55.0704 37.2168H37.0224V0.968628Z" fill="#FF7262"/>
<path d="M73.1183 55.3408C73.1183 65.3453 65.0328 73.4649 55.0704 73.4649C45.1079 73.4649 37.0224 65.3453 37.0224 55.3408C37.0224 45.3363 45.1079 37.2167 55.0704 37.2167C65.0328 37.2167 73.1183 45.3363 73.1183 55.3408Z" fill="#1ABCFE"/>
</g>
<defs>
<clipPath id="clip0">
<rect width="72.2063" height="108.744" fill="white" transform="translate(0.91925 0.968628)"/>
</clipPath>
</defs>
</svg>
