<svg width="45" height="62" viewBox="0 0 45 62" fill="none" xmlns="http://www.w3.org/2000/svg">
<g clip-path="url(#clip0)">
<path d="M29.5866 22.5228L23.5297 28.2139L17.9074 16.7648L20.8118 10.1818C21.5459 8.86863 22.7465 8.85129 23.4806 10.1818L29.5866 22.5228Z" fill="#FFA000"/>
<path d="M23.5322 28.2115L0.875778 49.4769L17.9098 16.7648L23.5322 28.2115Z" fill="#F57F17"/>
<path d="M36.2279 13.8189C37.3131 12.7759 38.4302 13.1277 38.7125 14.6093L44.6025 49.1895L25.0666 61.0251C24.3816 61.4116 22.5648 61.5628 22.5648 61.5628C22.5648 61.5628 20.9125 61.3596 20.279 61.0078L0.875778 49.4769L36.2279 13.8189Z" fill="#FFCA28"/>
<path d="M17.9098 16.7662L0.875778 49.4782L8.46719 1.66506C8.75199 0.183445 9.58429 0.03231 10.3356 1.34545L17.9098 16.7662Z" fill="#FFA000"/>
</g>
<defs>
<clipPath id="clip0">
<rect width="43.7267" height="61.118" fill="white" transform="translate(0.875778 0.447205)"/>
</clipPath>
</defs>
</svg>
