<svg width="85" height="85" viewBox="0 0 85 85" fill="none" xmlns="http://www.w3.org/2000/svg">
<g clip-path="url(#clip0)">
<path d="M82.7648 39.0758L46.2272 2.5409C44.1245 0.4364 40.7116 0.4364 38.6062 2.5409L31.0192 10.1279L40.6437 19.7524C42.8804 18.9967 45.4449 19.5036 47.228 21.2867C49.0194 23.0809 49.5226 25.6674 48.7485 27.9115L58.0241 37.187C60.2682 36.4139 62.8575 36.9143 64.6498 38.7094C67.1546 41.2133 67.1546 45.2717 64.6498 47.7775C62.144 50.2832 58.0856 50.2832 55.579 47.7775C53.6948 45.8915 53.2293 43.1241 54.1833 40.8029L45.533 32.1526L45.5321 54.9164C46.1427 55.2194 46.7193 55.6225 47.228 56.1293C49.7328 58.6333 49.7328 62.6917 47.228 65.1992C44.7223 67.7041 40.662 67.7041 38.1599 65.1992C35.6551 62.6917 35.6551 58.6333 38.1599 56.1293C38.7788 55.5114 39.495 55.044 40.2589 54.73V31.7541C39.495 31.4419 38.7797 30.9773 38.1599 30.3548C36.262 28.4596 35.8057 25.6747 36.7781 23.3444L27.2913 13.8558L2.23842 38.9068C0.133009 41.0131 0.133009 44.4261 2.23842 46.5306L38.776 83.0664C40.8796 85.1708 44.2916 85.1708 46.398 83.0664L82.7648 46.7004C84.8693 44.595 84.8693 41.1803 82.7648 39.0758Z" fill="#DE4C36"/>
</g>
<defs>
<clipPath id="clip0">
<rect width="83.6838" height="83.6838" fill="white" transform="translate(0.658661 0.962524)"/>
</clipPath>
</defs>
</svg>
