<svg width="59" height="58" viewBox="0 0 59 58" fill="none" xmlns="http://www.w3.org/2000/svg">
<path d="M19.8073 46.0342C19.8073 46.2693 19.537 46.4573 19.1962 46.4573C18.8083 46.4926 18.538 46.3045 18.538 46.0342C18.538 45.7992 18.8083 45.6111 19.1491 45.6111C19.5017 45.5759 19.8073 45.7639 19.8073 46.0342ZM16.1522 45.5053C16.0699 45.7404 16.305 46.0107 16.6576 46.0812C16.9631 46.1987 17.3157 46.0812 17.3862 45.8462C17.4568 45.6111 17.2335 45.3408 16.8809 45.235C16.5753 45.1528 16.2345 45.2703 16.1522 45.5053ZM21.3469 45.3055C21.0061 45.3878 20.771 45.6111 20.8063 45.8814C20.8415 46.1165 21.1471 46.2693 21.4997 46.187C21.8405 46.1047 22.0756 45.8814 22.0403 45.6464C22.0051 45.4231 21.6877 45.2703 21.3469 45.3055ZM29.0802 0.269043C12.7792 0.269043 0.309509 12.6447 0.309509 28.9457C0.309509 41.9795 8.51292 53.1329 20.2304 57.0583C21.7348 57.3286 22.2636 56.4001 22.2636 55.6362C22.2636 54.9075 22.2284 50.8881 22.2284 48.42C22.2284 48.42 14.0014 50.1829 12.2738 44.9177C12.2738 44.9177 10.934 41.4977 9.00654 40.6162C9.00654 40.6162 6.31516 38.771 9.19458 38.8063C9.19458 38.8063 12.121 39.0413 13.7311 41.8385C16.305 46.375 20.6182 45.0705 22.2989 44.2948C22.5692 42.4144 23.3331 41.1098 24.1793 40.3341C17.6095 39.6055 10.981 38.6535 10.981 27.3474C10.981 24.1154 11.8742 22.4935 13.7546 20.425C13.4491 19.6611 12.4501 16.5113 14.0602 12.4449C16.5165 11.681 22.1696 15.6181 22.1696 15.6181C24.5201 14.96 27.047 14.6191 29.5503 14.6191C32.0537 14.6191 34.5805 14.96 36.931 15.6181C36.931 15.6181 42.5841 11.6692 45.0404 12.4449C46.6506 16.5231 45.6516 19.6611 45.346 20.425C47.2264 22.5052 48.3782 24.1271 48.3782 27.3474C48.3782 38.6887 41.4558 39.5937 34.8861 40.3341C35.9673 41.2626 36.884 43.0255 36.884 45.7874C36.884 49.7481 36.8488 54.649 36.8488 55.6127C36.8488 56.3766 37.3894 57.3051 38.882 57.0348C50.6347 53.1329 58.6031 41.9795 58.6031 28.9457C58.6031 12.6447 45.3813 0.269043 29.0802 0.269043ZM11.7332 40.8042C11.5804 40.9218 11.6156 41.1921 11.8154 41.4154C12.0035 41.6034 12.2738 41.6857 12.4266 41.5329C12.5794 41.4154 12.5441 41.1451 12.3443 40.9218C12.1563 40.7337 11.886 40.6515 11.7332 40.8042ZM10.4639 39.8523C10.3816 40.0051 10.4991 40.1931 10.7342 40.3106C10.9222 40.4282 11.1573 40.3929 11.2396 40.2284C11.3218 40.0756 11.2043 39.8875 10.9692 39.77C10.7342 39.6995 10.5461 39.7347 10.4639 39.8523ZM14.2718 44.0362C14.0837 44.189 14.1542 44.5416 14.4245 44.7649C14.6949 45.0352 15.0357 45.0705 15.1885 44.8824C15.3413 44.7297 15.2707 44.3771 15.0357 44.1538C14.7771 43.8835 14.4245 43.8482 14.2718 44.0362ZM12.932 42.3086C12.7439 42.4261 12.7439 42.7317 12.932 43.002C13.12 43.2723 13.4373 43.3898 13.5901 43.2723C13.7781 43.1195 13.7781 42.814 13.5901 42.5436C13.4256 42.2733 13.12 42.1558 12.932 42.3086Z" fill="#FCFCFC"/>
</svg>
