<svg width="62" height="72" viewBox="0 0 62 72" fill="none" xmlns="http://www.w3.org/2000/svg">
<g clip-path="url(#clip0)">
<path d="M10.3282 31.8022C8.3129 32.7521 2.9788 37.028 1.95144 38.2949C0.884507 39.5618 0.5685 37.5824 1.67482 34.2964C2.54388 31.6438 4.7569 28.041 8.471 24.9531C10.6441 23.1715 15.4253 20.5982 18.3491 19.0936C18.9419 18.7768 26.6073 15.5305 33.4431 13.9073C34.0359 13.7489 32.7319 14.897 32.5343 15.5305C31.5069 18.5393 10.9996 31.4458 10.9996 31.4458L10.3282 31.8022ZM39.2119 68.1064C39.5675 70.2443 39.2515 70.4027 37.0389 70.6798C34.826 70.957 33.2061 70.1255 32.6134 69.5714C32.0206 69.0168 31.9023 67.7898 32.4949 66.6813C32.8507 65.9685 33.2062 65.731 33.4039 64.8601C33.6014 64.0287 33.7595 63.8307 33.9174 63.5141C34.0753 63.2367 34.1151 62.9595 34.1545 61.0197C34.194 59.0799 34.1545 55.4375 34.3521 53.8936C34.5498 52.3101 41.3856 54.6061 41.3856 54.6061C41.3856 54.6061 39.7654 58.6443 39.3308 59.6341C38.8961 60.624 38.9357 62.5241 38.9357 62.9201C38.9357 63.316 38.7778 64.1077 38.6591 64.1473C38.5405 64.1868 39.0542 65.2161 38.817 65.8101C38.6589 66.3645 39.1725 67.7898 39.2119 68.1064ZM41.8199 7.57281C41.5827 6.0684 41.8199 3.09883 42.1359 2.62399C43.1239 1.27779 48.3395 1.11957 49.446 2.7031C49.9201 3.41565 49.8805 5.07848 49.8016 6.1475C49.7226 7.21634 49.446 9.51261 49.4064 10.265C49.367 10.8193 43.6376 11.6901 42.3732 10.1857C42.0174 9.78997 41.8199 7.57281 41.8199 7.57281ZM53.4367 64.2661C55.847 66.0082 57.704 66.3248 58.9289 66.9583C60.1537 67.5919 59.8377 68.8192 57.783 69.1754C56.1234 69.4921 53.5156 68.8586 51.7771 68.8586C50.0386 68.8586 46.1662 69.0567 45.1388 68.3441C43.9536 67.5128 44.4671 65.9685 44.4671 65.9685C44.7833 65.0978 45.5734 63.1576 45.3363 61.5741C45.0993 59.9905 44.7831 59.1196 44.1904 57.6546C43.5978 56.1899 43.1633 52.5872 43.7165 52.3892C44.2698 52.1911 44.1115 52.3892 44.8228 52.5474C45.534 52.7056 46.3243 52.9433 47.8654 52.9433C49.4064 52.9433 51.1053 52.7056 51.6982 52.587C52.2908 52.4683 52.7649 52.3493 52.5672 53.5768C52.3698 54.804 51.7771 57.1003 51.7375 58.8819C51.6982 60.6634 51.6982 62.7222 51.8167 63.0785C51.935 63.4348 52.8045 63.8307 53.4367 64.2661Z" fill="#010101"/>
<path d="M44.981 11.5319C40.6347 15.2931 32.2183 16.3223 19.7324 21.1524C16.5318 22.3796 7.99711 26.0615 5.94238 29.9019C12.8571 25.9033 15.4255 31.4063 15.9786 37.0677C16.492 42.3728 19.1396 45.1443 25.9358 44.9857C32.9296 44.8274 35.0633 48.9051 36.9993 53.6957C40.753 35.3652 46.7591 31.8022 50.6311 28.6746C58.85 21.9837 48.7346 10.1857 44.981 11.5319Z" fill="#8AC640"/>
<path d="M44.9809 11.5319C34.5496 15.1742 24.2366 16.0848 12.1063 23.5674C9.2219 25.349 3.13688 29.387 1.95142 37.1073C6.37668 32.1979 16.6105 26.0221 29.1362 22.1026C35.4582 20.123 40.0814 18.8166 45.6921 16.6391C45.2971 14.1051 45.2971 13.1154 44.9809 11.5319Z" fill="#8AC640"/>
<path d="M58.2967 33.2273C58.2967 33.2273 57.5459 35.8008 56.0444 36.6323C56.0444 36.6323 54.9381 37.0282 52.7255 35.801C52.0933 35.4447 51.6192 34.2174 51.6586 33.8213C51.6981 32.871 52.2908 32.4356 52.2908 32.4356C52.2908 32.4356 52.9232 31.3666 53.6737 31.4063C54.4246 31.4457 55.6891 31.5645 56.0842 31.2082C56.4396 30.8123 58.3758 31.9208 58.2967 33.2273ZM42.1754 8.325C42.1754 8.325 42.0175 10.3443 41.7409 11.611C41.7013 11.8487 40.5161 11.9673 39.6466 12.3237C41.3062 17.0745 51.303 17.0348 52.607 14.6991C51.9748 14.2637 50.7103 13.5906 50.1177 13.3531C49.5249 13.1154 49.5645 13.1551 49.5249 12.0466C49.4855 10.9379 49.4064 8.87933 49.3272 8.325C49.2483 7.77066 43.1237 7.77066 42.1754 8.325Z" fill="#010101"/>
<path d="M42.5706 8.32501C42.5706 8.32501 42.5706 9.47315 42.4521 10.5816C42.4127 11.0963 42.3731 11.4129 42.2942 11.8089C42.2546 12.0466 43.6375 12.9965 44.0327 15.0949C45.9293 19.3309 50.3154 17.2327 52.1329 15.2136C51.5007 14.7781 50.4733 14.1843 49.288 13.7092C48.6952 13.4715 48.9718 12.957 48.9324 11.8485C48.8929 10.74 48.7348 9.11667 48.6558 8.52288C48.5765 7.92908 43.519 7.77067 42.5706 8.32501Z" fill="#F0EFEF"/>
<path d="M42.1755 8.32503C42.1755 8.32503 42.1359 9.03778 42.0176 9.86909C42.5311 10.3836 43.2028 11.0963 43.7167 11.5319C44.0723 11.8487 44.9414 11.8091 45.7319 11.8091C46.443 11.8091 47.0752 11.8882 47.3519 11.73C47.9843 11.4132 48.8929 10.6215 49.4066 10.0275C49.3672 9.31495 49.3276 8.64185 49.2883 8.32503C49.2483 7.77069 43.1237 7.77069 42.1755 8.32503Z" fill="#010101"/>
<path d="M45.7712 11.3339C45.2969 11.3339 44.7437 11.2944 44.3091 11.2151C44.1115 11.1756 43.914 11.0569 43.7559 10.9776C43.4793 10.7795 43.2026 10.5422 42.8868 10.3045C42.2544 9.82945 42.215 9.55228 42.215 9.43371C42.4917 6.93938 42.1359 4.84117 42.1359 4.84117C42.1359 4.84117 41.8593 3.77214 43.3607 3.49497C44.8622 3.2178 45.771 3.17834 45.771 3.17834C45.771 3.17834 46.7195 3.17834 48.1813 3.49497C49.6828 3.77214 49.4062 4.84117 49.4062 4.84117C49.4062 4.84117 49.0506 6.93938 49.3272 9.43371C49.3272 9.55228 49.2879 9.82945 48.6555 10.3045C48.1022 10.7004 47.6677 11.1358 47.2331 11.2151C46.7984 11.2944 46.2452 11.3339 45.7712 11.3339Z" fill="#010101"/>
<path d="M45.7713 2.14896C43.1635 2.14896 42.6496 2.86151 41.8989 3.65337C41.741 3.85124 41.8593 5.03902 42.1361 7.57281H42.4917C42.4917 7.57281 42.2544 6.86006 42.294 6.02875C42.3336 5.19743 42.4917 5.23709 42.373 5.03902C42.2151 4.80131 41.8989 4.40538 42.6102 4.00965C43.3214 3.61372 44.4277 4.32627 45.7713 4.36593C47.1146 4.32627 48.2605 3.61372 48.9717 4.00965C49.6828 4.40538 49.3668 4.80131 49.2089 5.03902C49.0508 5.27654 49.2483 5.19724 49.2879 6.02875C49.3273 6.86006 49.0902 7.57281 49.0902 7.57281H49.4458C49.6828 5.03902 49.8409 3.93054 49.7224 3.73248C49.0506 2.86151 48.379 2.18841 45.7713 2.14896ZM58.2967 33.3461C58.2967 33.3461 57.5459 35.7611 56.0841 36.5924C55.7679 36.4342 55.8074 36.1967 55.5308 35.8402C55.4517 35.7217 55.175 35.6422 55.0567 35.5236C54.9382 35.4049 54.9777 35.2068 54.7801 35.0486C54.622 34.8902 54.5034 35.0089 54.3453 34.8902C54.1874 34.732 54.1477 34.5339 54.0293 34.4153C53.9502 34.336 53.6342 34.2966 53.5552 34.2173C53.3576 34.0192 51.6192 33.6629 51.6982 33.267C51.8561 32.673 52.1723 32.2376 52.1723 32.2376C52.1723 32.2376 52.923 31.1291 53.6736 31.1686C54.4243 31.2082 55.1356 31.3667 55.5308 31.0104C55.9655 30.6143 58.4154 32.0792 58.2967 33.3461Z" fill="#010101"/>
<path d="M53.1601 15.8473C53.1601 15.8473 55.6493 15.2533 57.3485 16.8767C59.0476 18.5395 58.9289 20.598 58.4154 21.8649C58.85 22.3796 59.6403 23.8047 59.0476 25.5072C61.6554 27.7242 60.5095 31.1291 58.1784 33.3857C58.1784 33.3857 57.6251 31.327 55.4125 31.2082C55.4914 30.4166 53.3577 29.7829 54.3455 27.7242C52.8441 27.3679 52.8836 26.3385 52.6466 25.0718C52.4489 23.8047 53.1601 15.8473 53.1601 15.8473Z" fill="#010101"/>
<path d="M52.2512 16.9557C52.2512 16.9557 55.1357 15.491 56.8348 17.1538C58.5338 18.8166 58.0595 20.6377 57.546 21.9046C57.9805 22.4191 59.0079 23.8842 58.3757 25.6259C58.2571 26.0219 57.3879 26.0219 56.7555 27.0512C58.3359 26.1404 59.3239 26.3781 59.6795 27.5261C60.2327 29.3077 59.0077 31.4455 57.9409 32.6333C57.9409 32.5937 57.9014 32.554 57.9014 32.5146C57.7435 33.1086 57.5458 34.2565 56.3605 35.5234C55.7677 36.1568 55.2936 36.0777 54.6218 35.9193C53.8317 35.7213 53.555 35.3648 52.4487 34.7712C51.8165 34.4149 52.1721 33.9793 52.1721 33.623C52.1721 33.5439 52.2511 33.425 52.3698 33.2668C52.4487 33.0687 52.6858 32.7523 53.0414 32.3958C53.0414 32.3958 53.555 31.6832 54.306 31.7227C55.0567 31.7624 55.8468 31.6041 56.0445 31.4061C56.0445 30.0204 54.4641 29.9808 55.0171 27.6054C55.0567 27.4866 55.2544 27.2886 55.8864 27.2095C54.938 27.0114 54.5035 26.9718 53.8317 26.3385C53.3576 25.9031 53.002 25.3488 52.8833 24.6362C52.6464 23.409 52.2512 16.9557 52.2512 16.9557Z" fill="#F0EFEF"/>
<path d="M43.914 14.4616C43.677 14.1448 42.4521 12.5613 40.1208 11.9278C39.449 11.7298 39.0145 12.2841 38.3429 12.68C38.1452 12.5613 37.2759 12.1653 36.8018 12.4423C36.3277 12.7193 36.0117 12.9967 35.5374 13.1945C35.3002 13.0758 34.6682 13.0758 34.1545 13.2736C33.6408 13.4321 32.8505 13.7883 32.0997 14.8177C31.6256 16.5202 40.4764 15.2531 40.4764 15.2531L43.914 14.4616Z" fill="#010101"/>
<path d="M43.9931 14.4616C42.7285 14.026 42.9262 12.5613 40.1207 12.3238C39.5675 12.2841 39.2119 12.7195 38.8167 12.9967C39.0144 13.1947 39.2119 13.5114 39.3304 13.828C38.9748 13.4322 38.3426 12.9174 37.7102 12.7986C37.1176 12.68 36.7224 13.1154 36.0902 13.4322C36.2086 13.5508 36.3273 13.7489 36.4852 13.9866C35.9319 13.6303 35.537 13.5115 34.7862 13.7885C34.2726 13.9467 33.2848 14.3823 32.534 15.4513C32.0599 17.1538 40.5157 15.2533 40.5157 15.2533L43.9931 14.4616Z" fill="#8AC640"/>
<path d="M51.4215 15.0951C51.4215 15.0951 51.4215 14.6595 51.382 14.2637C51.382 14.1846 51.066 13.9866 51.066 13.9075L50.987 13.8282C50.987 13.8282 51.6192 13.4719 52.0933 13.6699C52.6068 13.8282 52.8834 14.5013 52.8834 14.5013C53.7923 14.1846 53.8712 14.5409 54.306 15.016C55.2544 14.8179 55.3727 15.1742 55.9655 16.0453C55.9655 16.0453 55.2544 15.9266 53.8714 16.1639C52.5278 16.3618 51.4215 15.0554 51.4215 15.0951Z" fill="#010101"/>
<path d="M51.2635 14.897C51.2635 14.897 51.5005 14.6989 51.4214 14.6593C51.8559 14.4218 52.4487 14.1448 52.7253 14.897C53.6342 14.5802 53.7527 15.0158 54.1872 15.491C55.2936 14.9763 55.3725 15.6096 55.4517 15.8867C55.0961 15.8867 54.5826 15.9264 53.8712 16.0055C52.5279 16.2036 51.2239 14.8574 51.2635 14.897Z" fill="#8AC640"/>
<path d="M37.8291 13.9073C37.8291 13.9073 40.0813 14.699 41.978 14.5802C43.8746 14.422 47.1146 14.2636 48.8531 15.2929C48.8531 15.2929 50.6312 14.6593 52.2908 15.0949C53.9505 15.5303 56.9928 18.3809 56.0842 21.3897C56.0051 21.5878 55.4914 21.9044 54.8987 22.1025C54.8987 22.1025 55.2149 23.4485 54.6617 24.5569C54.1084 25.626 52.8836 27.6847 52.844 30.5351C52.8046 31.0102 52.7257 31.9999 52.6465 32.4749C49.5645 32.3564 44.823 31.208 40.1605 31.2874C40.1999 30.7729 40.2394 30.456 40.279 29.9413H40.3973C40.1603 28.6348 40.0813 27.9617 39.8441 26.972C38.3426 26.0219 36.762 24.9134 35.4188 22.815C34.1148 20.7166 37.8291 13.9073 37.8291 13.9073ZM53.0811 35.2861C53.0811 35.2861 55.531 44.0753 52.6465 47.7572C52.6465 47.7572 53.0811 49.4595 52.0933 51.2807C51.9352 52.0724 51.7375 52.7851 51.6192 53.5768C51.1055 56.8628 50.236 58.2484 49.999 63.5139L47.6281 63.4744C47.6281 63.4744 47.3514 59.6737 46.5217 57.6546C46.0478 56.5067 44.1904 54.9624 44.2697 53.4186C44.3487 52.2308 44.5857 51.241 46.6011 49.6573C46.759 47.3613 44.4672 45.1835 44.823 36.6321L53.0811 35.2861Z" fill="#010101"/>
<path d="M52.3699 34.9296C53.0021 38.9678 54.464 44.946 51.8167 47.8755C51.9729 48.6184 51.9863 49.3843 51.8561 50.1322C51.7771 50.6072 51.619 51.1219 51.4215 51.676C51.0264 52.6263 50.8683 54.012 50.7498 54.8433C50.2361 58.1293 50.2361 58.2879 49.999 63.5533L47.6281 63.5137C47.6281 63.5137 47.3515 59.713 46.5218 57.6941C46.0479 56.546 45.0599 55.5562 44.9809 54.0122C44.902 52.8246 45.7317 50.4492 47.7074 50.5283C47.5889 45.7379 45.3761 46.688 44.7834 36.7112L52.3699 34.9296ZM37.8292 13.9073C37.8292 13.9073 38.6984 14.1845 39.6466 14.2636C40.595 14.3427 41.6224 14.2636 42.5311 14.2239C44.4277 14.0657 47.1146 13.8676 48.8927 14.897C48.8927 14.897 49.8805 14.5802 50.9474 14.6593C51.4215 14.699 51.8958 15.0949 52.4489 15.2533C54.1874 15.6887 55.847 18.5787 55.0961 21.1918C55.0171 21.3899 54.4638 21.1918 53.8316 21.3899C53.95 21.9442 54.0293 23.2111 53.3969 24.5571C52.7253 25.9033 51.8561 27.6453 52.014 30.9709C47.8651 30.7729 46.0081 30.4959 41.8987 30.2978C41.5431 28.8329 41.3058 27.3681 41.2664 26.6159C41.8197 26.3387 42.1355 26.1014 42.5704 25.6262C41.3852 25.8242 40.9109 25.7449 40.1995 25.349C39.4883 24.9531 38.2239 23.6862 37.5917 22.8549C37.5128 22.7756 37.0782 24.0819 36.0904 24.1218C35.7347 23.6071 37.2361 22.1421 36.9595 21.588C35.9719 19.5687 37.8292 13.9073 37.8292 13.9073Z" fill="#F0EFEF"/>
<path d="M52.6858 31.6436C52.6858 31.6436 52.7647 33.0689 52.7647 33.4252C52.7647 33.8211 53.0809 35.0087 53.1203 35.5631C52.6858 36.3153 50.7892 38.0177 47.3515 38.6512C43.9534 39.3637 39.449 34.0192 39.449 34.0192C39.5675 33.5045 39.9627 31.9999 40.2393 31.2082C40.2789 31.1291 40.3578 30.9311 40.3578 30.852C40.7136 30.3373 52.6858 31.6436 52.6858 31.6436Z" fill="#010101"/>
<path d="M51.8167 31.7626C51.8167 32.7523 51.9746 33.465 52.0933 34.0985C52.2908 35.2466 52.6068 35.9988 52.6068 36.751C52.6068 39.0471 49.6039 38.6512 47.0749 38.7305C43.6768 39.4432 40.7924 34.0985 40.7924 34.0985C41.0294 33.1879 41.1875 32.1587 41.5431 31.2875C41.5825 30.8125 41.6616 30.2187 41.701 29.9415C46.5216 29.9415 49.9197 30.2187 51.8955 30.4164C51.9746 30.852 51.8957 31.6042 51.8167 31.7626Z" fill="#F0EFEF"/>
<path d="M48.0233 36.8696C48.0233 36.8696 45.9291 32.1979 39.6464 33.5838C38.1452 37.8199 36.1298 42.6896 37.4338 47.955C36.1298 49.7366 34.6284 50.7265 34.6284 54.0123C34.6284 57.2983 34.7865 57.8527 34.7865 57.8527L39.4094 58.0904C39.4094 58.0904 40.9109 56.1506 41.5035 54.0522C41.6616 53.4582 41.8197 52.3894 41.7012 51.1621C41.8591 50.9246 42.5309 50.3704 42.61 49.3014C42.61 49.3014 44.8622 48.1138 46.1662 45.2238C47.3912 42.6103 47.075 40.3537 48.0233 36.8696Z" fill="#010101"/>
<path d="M48.0233 36.8696C47.9049 36.4342 46.3243 32.1585 40.4764 33.4252C37.0389 42.6103 38.3033 46.411 38.8168 48.0736C36.4854 51.0428 35.4187 51.6762 35.893 57.6941H38.9751C40.3974 55.4375 40.7136 54.6059 40.7926 51.6368C40.7926 51.518 40.358 51.8743 40.0418 52.2702C40.2791 51.043 40.9507 50.8054 41.4643 50.0532C41.7014 49.7364 41.8989 49.2614 41.8989 48.6279C44.6648 46.7672 45.6921 44.4313 46.2848 42.0163C46.7591 40.3537 47.3121 37.6218 48.0233 36.8696Z" fill="#F0EFEF"/>
<path d="M38.2637 30.4957C38.2637 30.4957 39.3306 30.5351 40.279 30.8519C41.1879 31.1686 41.1879 31.3664 41.5435 31.7626C41.899 32.1587 42.7683 32.7523 42.6104 33.3461C42.5312 33.6629 42.3338 33.742 42.0571 34.0192C41.9386 34.1379 41.0692 35.088 40.8717 35.2068C40.7531 35.2859 40.595 35.4048 40.4765 35.4839L39.8839 35.8799C39.4887 36.0779 39.2121 36.1967 38.7776 36.157C38.7776 36.157 37.7898 36.1174 37.1574 35.4445C37.1574 35.4445 37.0784 35.1277 37.2365 34.9695C37.2365 34.9695 36.4066 34.2567 36.1696 33.7817C35.9323 33.3068 35.9323 32.6337 36.0906 32.2774C36.1696 31.9208 37.7104 30.9311 38.2637 30.4957ZM39.2517 69.017L39.1331 70.0069C39.1331 70.0069 38.7776 70.4423 36.1302 70.4028C33.4433 70.3632 32.7321 69.5319 32.4951 69.0963L32.3372 68.0669C32.3372 68.0669 32.8508 67.3147 32.9694 67.3147C33.8386 67.3938 36.8022 68.5816 38.8569 68.8982C39.054 68.8982 39.0934 68.9773 39.2517 69.017ZM44.9809 66.9979C44.9809 67.4333 44.9414 67.4333 44.9414 67.8689C45.4155 68.2251 46.6011 68.4232 48.8531 68.3834C52.1327 68.3042 55.1752 69.3733 58.8893 68.7396L58.9289 68.0271L58.5733 67.9876L45.4155 66.9186L44.9809 66.9979Z" fill="#010101"/>
<path d="M47.8653 68.3836H48.8531C50.987 68.3045 53.0021 68.7795 55.1752 68.8983C56.3211 68.8586 57.7436 68.5814 57.6251 67.7501L46.4034 66.7999C45.7317 67.5521 46.2451 68.1855 47.8653 68.3836ZM34.9841 51.7161C35.3397 51.9536 37.75 53.3789 41.6618 53.1808C41.5826 53.933 41.6222 55.398 39.8837 57.9712C39.0144 59.2381 38.2635 61.4553 38.1056 64.2663C38.1452 64.8997 38.5007 65.4539 38.0266 66.2854C38.1845 66.7999 38.8167 67.8292 39.1329 68.4627C39.449 69.0963 39.6071 69.8089 37.5128 69.8485C35.3791 69.888 31.9414 69.6505 32.4157 67.9878C32.653 67.1169 33.3246 66.2063 33.4037 65.8498C33.4827 65.4935 33.4827 64.4247 34.1542 63.7119C34.7471 61.7325 34.5494 59.8321 34.4311 58.0505C34.2334 56.1897 34.1938 53.2205 34.9841 51.7161ZM38.6588 19.4499C41.4643 15.6887 39.0934 12.68 34.5892 13.5905C32.7715 13.9467 30.954 15.2138 30.8353 17.5099C30.2427 17.589 28.8993 17.6681 28.2275 20.1228C27.714 22.0231 27.4374 22.3794 26.5284 23.3295C25.9357 24.0026 26.5679 25.3882 27.0025 26.3782C28.4646 29.7829 32.969 30.0996 36.0115 32.673C37.0388 32.3958 38.1056 31.2479 38.4218 30.4957C35.8534 27.447 36.4064 26.2594 35.3791 24.6759C36.4856 24.2798 39.0144 22.7359 38.6588 19.4499Z" fill="#010101"/>
<path d="M38.1056 19.2124C38.2635 18.9747 38.5401 18.4602 38.6588 18.2621C38.6984 18.2224 39.1329 18.9747 39.1725 18.9352C40.2393 17.1931 40.5159 14.6593 39.2909 14.4218C39.0142 14.3821 38.5007 14.2635 38.066 14.1049C37.2759 13.8278 36.5647 13.8278 35.3001 14.0655C33.5616 14.3821 31.8231 15.649 31.8231 17.4702C31.8231 17.589 33.0477 17.9453 33.4035 19.4102C32.8107 18.5787 31.7833 17.6681 30.5585 18.46C29.2545 19.2913 29.9263 21.1916 28.1877 23.1711C27.5949 23.8442 27.6741 24.636 28.3061 26.2195C29.3334 28.7139 34.1936 30.0599 36.841 32.4353C37.4732 32.1581 37.9077 31.5246 38.2239 31.0496C36.4458 29.1889 35.7345 27.4468 35.221 26.1799C34.5888 24.7151 33.8774 23.8838 32.4945 22.7749C33.2058 23.0521 33.7591 23.3293 34.0749 23.5668C34.4305 23.8043 34.9442 23.844 35.4185 23.6856C37.1178 23.0922 38.0266 20.7166 38.1056 19.2124Z" fill="#F0EFEF"/>
<path d="M55.2937 19.8458C55.1752 21.3502 54.0689 20.598 53.4762 20.3209C52.2908 19.8062 51.1053 19.4499 49.7224 19.4499C48.3394 19.4499 46.5613 19.5687 45.0205 19.9646C42.8868 20.5584 42.2544 20.5189 41.3062 20.0437C40.358 19.529 38.6986 18.2621 38.6986 18.2621C38.6986 18.2621 38.659 18.658 39.0542 19.1727C39.5677 19.8062 40.7138 20.598 42.2546 21.1125C43.0053 21.3502 43.5982 21.1916 44.27 21.0334C47.7866 20.1625 51.5007 20.004 54.6221 21.9044C54.7802 21.9835 55.3335 21.746 55.5705 21.3897C55.8864 20.8752 55.2937 19.8458 55.2937 19.8458Z" fill="#010101"/>
<path d="M37.3155 34.9296C37.6315 35.1277 38.0267 35.2464 38.4612 35.6027C38.4612 35.6027 38.1056 35.6027 37.9477 35.4445C37.75 35.3257 37.3549 34.9695 37.3155 34.9296Z" fill="#0A1825"/>
<path d="M44.5857 52.4683C44.5857 52.4683 46.68 53.3789 51.8562 52.587C51.8562 52.587 50.3943 59.9509 51.0661 63.6326C51.0661 63.6326 51.7377 64.5829 56.7164 66.4039C56.7164 66.4039 58.929 66.9583 58.8501 68.0669C58.8501 68.0669 58.929 68.3045 56.2423 68.2252C53.5556 68.1459 51.0265 67.6708 49.2484 67.6708C47.4703 67.6708 45.5737 67.7499 45.2577 67.2354C44.9021 66.7604 45.3367 65.533 45.8503 64.8202C46.4038 64.0682 46.2455 63.5137 46.2061 62.1678C46.0872 58.6443 43.4003 55.0021 44.5857 52.4683Z" fill="#010101"/>
<path d="M44.151 53.1414C43.8744 53.5373 44.1904 55.0416 44.5855 56.5065C44.9807 57.9713 45.8502 58.8424 46.0476 61.2573C46.2451 63.6327 46.2847 63.9495 45.6129 65.3349C44.9411 66.7204 44.7436 67.9875 47.0748 68.0271C49.406 68.0668 50.6706 67.9875 53.0413 68.344C55.4122 68.7002 56.2419 68.819 57.5459 68.6211C58.8499 68.4233 59.1263 67.9875 58.5733 67.5918C58.02 67.1958 55.7282 66.7604 54.7404 65.9684C53.792 65.2558 51.1053 64.068 51.0659 63.7514C50.9474 62.6824 50.9078 58.8026 51.1053 57.5357C51.303 56.2686 51.5794 54.4476 51.6585 53.9725C51.7377 53.4975 52.1327 53.0223 51.4609 53.1807C50.7893 53.3389 48.2605 53.6954 46.3638 53.5766C44.4672 53.458 44.2697 53.0225 44.151 53.1414Z" fill="#8AC640"/>
<path opacity="0.3" d="M45.4946 65.3747C46.1662 65.6914 47.1542 65.9291 47.9049 65.9291C47.9049 65.9291 47.6281 67.2356 48.0628 68.0273C48.4973 68.8192 44.9018 68.3441 44.9018 68.3441L44.7439 65.5332L45.4946 65.3747ZM55.9655 68.7795C56.5977 68.5814 57.0324 67.8689 56.5187 67.196C55.9655 66.5229 55.4914 66.4041 56.2025 66.3647C56.9139 66.325 59.5217 67.9085 59.5217 67.9085L58.1781 69.1358L55.9655 68.7795ZM44.0325 54.6852C44.9413 55.0021 46.3243 55.0812 47.5097 55.0415C48.695 55.0021 50.4731 54.8435 51.6192 54.4477C52.7649 54.0518 52.2908 54.8831 52.2908 54.8831L51.6586 55.4771C51.6586 55.4771 50.1571 56.0709 47.7074 56.0314C44.823 55.9918 43.9536 55.6752 43.9536 55.6752L44.0325 54.6852ZM44.1115 56.6649C45.0205 56.9817 46.4032 57.0608 47.5887 57.0212C48.774 56.9817 50.3546 56.9817 51.5005 56.5461C51.9746 56.3879 51.6981 57.0608 51.6981 57.0608L51.5005 57.4171C51.5005 57.4171 49.9594 57.9714 47.5491 57.9316C44.6647 57.8921 44.151 57.6544 44.151 57.6544L44.1115 56.6649Z" fill="#010101"/>
<path d="M41.5037 28.9122C41.5037 29.1893 44.5857 30.7332 46.2847 31.05C47.9838 31.3667 51.54 31.05 52.0931 30.9313L52.014 31.4856C52.014 31.4856 47.7862 32.1191 44.5462 31.2481C41.306 30.3771 41.6618 30.1791 41.6618 30.1791L41.5037 28.9122Z" fill="#010101"/>
<path d="M34.905 62.6825C35.3791 62.9202 37.0782 63.3556 38.1845 63.1181C38.3424 63.0784 38.1845 60.3862 38.6193 59.159C39.2515 57.4565 40.2788 56.0709 40.7528 53.0622C39.0932 52.9038 37.1968 52.4682 36.2088 52.1514C34.9445 56.0314 35.3793 59.3569 34.905 62.6825ZM37.5525 65.1769C37.8292 65.256 38.0266 65.5726 38.1058 65.3749C38.2637 65.0184 37.8292 64.3455 37.7896 63.8705V63.8309C37.434 63.5142 35.0237 63.4746 35.1818 63.6328C34.9052 64.1475 34.4706 64.0684 34.3127 65.0977C34.2338 65.6122 34.866 65.1768 35.4584 65.1372C34.3917 65.8498 33.1668 66.7606 32.9692 67.5522C32.7321 68.6607 33.1273 68.9775 34.3127 69.5715C35.3401 69.809 36.5649 69.8487 37.5131 69.809C38.5801 69.611 38.7778 69.0965 38.4616 68.3837C37.9871 67.3147 37.6711 65.9291 37.5525 65.1769Z" fill="#F0EFEF"/>
<path d="M37.9871 13.7489C39.2911 14.5011 41.1087 14.3032 41.7803 14.2636C41.9384 14.2636 43.519 13.9864 43.598 14.0258C43.7559 14.0655 43.7559 14.1843 43.7559 14.1843C43.7559 14.1843 43.1633 14.5009 41.8199 14.58C40.5555 14.6591 39.054 14.58 38.2243 14.1843C37.2363 13.7489 37.9871 13.7489 37.9871 13.7489ZM51.4215 14.5011C51.6586 14.6593 53.1996 15.2533 53.8714 15.9658C54.464 16.5995 54.148 16.5598 54.0293 16.4014C53.8714 16.2034 52.6464 15.372 52.1723 15.1742C51.6982 14.9763 51.1053 14.6198 51.1053 14.5407C51.1053 14.4616 51.4215 14.5011 51.4215 14.5011Z" fill="#010101"/>
<path d="M37.7894 30.9311C38.9353 30.8519 40.1207 31.1291 40.8715 31.9208C41.2666 32.3167 41.8988 32.7521 41.8199 33.148C41.8199 33.2668 41.5826 33.5836 41.3853 33.8211C41.2668 33.9793 40.9112 34.3356 40.7925 34.4546C40.6346 34.5733 40.0813 35.0089 39.9628 35.088C39.8443 35.1673 39.6862 35.3654 39.5677 35.4048C39.1727 35.6029 38.738 35.4445 38.3428 35.2466C37.9479 35.0486 38.422 35.0089 37.9872 34.6923C36.9205 33.9401 36.3277 33.4252 36.7624 31.9604C36.8018 31.6833 37.2363 31.3664 37.7894 30.9311Z" fill="#F0EFEF"/>
<path opacity="0.4" d="M27.7138 21.8649C24.1576 23.2902 15.109 27.8037 12.5408 29.1893C14.6745 30.5353 15.6623 33.7817 15.9785 37.0677C16.0179 37.3845 16.0575 37.6617 16.097 37.9783C16.1364 38.2555 16.176 38.4533 16.2154 38.5723C16.2154 38.6119 16.2154 38.691 16.2549 38.7305C18.5863 32.3566 26.9233 25.6262 27.2395 25.1115C27.3974 24.8739 27.0418 23.8446 27.5951 22.855C28.3064 21.5878 29.6896 21.0334 27.7138 21.8649ZM36.1696 51.7557C37.987 48.1135 38.0266 44.6294 37.987 40.5515C37.987 38.8491 39.2119 36.434 38.5799 37.1071C36.209 39.7595 30.2426 44.7482 25.9357 45.0251C31.9812 44.8273 34.3519 47.8757 36.1696 51.7557Z" fill="#010101"/>
<path d="M9.0636 32.5542C11.3158 30.9311 22.9722 24.7156 25.7776 23.8444C28.5829 22.9338 27.7136 21.8647 27.7136 21.8647C27.7136 21.8647 16.3339 26.7739 9.53771 31.0102" fill="#010101"/>
<path opacity="0.4" d="M42.2545 21.1127C41.3456 20.7564 40.6345 21.8255 40.8715 22.8548C41.1088 23.8842 43.2424 25.0322 43.1237 28.7934C43.0448 31.8815 42.373 33.1482 42.373 33.1482L40.8715 31.2481C40.8715 31.2481 40.6345 26.9722 40.1208 26.3387C39.6073 25.7053 37.9871 24.5571 37.3549 23.9633C36.7227 23.3693 38.0661 22.5777 37.9871 21.469C37.9082 20.4002 38.6589 18.2623 38.6589 18.2623L42.2545 21.1127ZM47.7468 37.9781C47.6679 40.9473 48.3397 45.3419 48.6161 47.4404C48.8927 49.5386 49.2483 49.697 48.6161 50.6472C47.9839 51.5579 47.1542 53.0623 47.1542 53.0623L44.4277 52.8246C44.4277 52.8246 46.601 50.0532 46.7193 49.5386C46.8378 49.0241 45.613 45.1046 45.613 45.1046L47.7468 37.9781ZM42.4917 10.265C43.045 11.4921 43.7165 12.0464 44.7833 12.4029C45.4155 12.6404 47.9047 12.9572 48.8927 11.8485C49.3273 11.3338 49.0506 9.94818 49.0506 9.94818L46.7984 11.7692L43.7559 11.2151L43.4003 10.3045L42.4917 10.265Z" fill="#010101"/>
<path d="M42.7285 12.9967C43.7559 13.6698 46.3243 14.3032 47.0355 14.422C47.7466 14.5802 48.8925 13.6698 49.4458 13.4323C50.0386 13.1551 51.066 12.9967 52.2512 14.0657C52.3698 14.1845 51.9746 14.6991 51.9746 14.6991C51.935 14.6595 51.698 14.6595 51.3818 14.5011C51.0658 14.3429 50.7891 14.2239 50.315 14.2636C48.3393 14.5011 48.0233 15.1742 46.2847 14.7781C44.5462 14.3819 44.1115 14.0655 42.4125 14.1446" fill="#8AC640"/>
<path d="M42.7285 12.9967C43.7559 13.6698 46.3243 14.3032 47.0355 14.422C47.7466 14.5802 48.8925 13.6698 49.4458 13.4323C50.0386 13.1551 51.066 12.9967 52.2512 14.0657C52.3698 14.1845 51.9746 14.6991 51.9746 14.6991C51.935 14.6595 51.698 14.6595 51.3818 14.5011C51.0658 14.3429 50.7891 14.2239 50.315 14.2636C48.3393 14.5011 48.0233 15.1742 46.2847 14.7781C44.5462 14.3819 44.1115 14.0655 42.4125 14.1446" stroke="#010101" stroke-width="10.8638" stroke-miterlimit="10" stroke-linejoin="round"/>
<path d="M36.2486 50.0927C36.1696 50.0136 36.3275 49.9345 36.2486 49.9345C35.7351 49.9345 35.0237 49.5385 34.6284 48.9842C32.9294 46.5297 30.44 44.9065 25.9356 45.0253C19.1788 45.1835 16.4918 42.4124 15.9784 37.1073C15.7017 34.2172 14.9114 31.4063 13.2914 29.8226L12.343 30.4166C14.1605 32.0001 14.7533 34.5735 15.1485 38.097C15.7807 43.4021 20.048 45.8568 25.0267 45.9359C30.2029 46.015 32.06 47.0841 33.996 49.6971C34.6282 50.5285 35.3395 50.8056 35.8926 50.9244L36.2486 50.0927Z" fill="#010101"/>
<path opacity="0.4" d="M54.5826 24.6362C54.7011 25.23 55.0171 26.3782 55.6493 26.9323C55.9261 27.2095 55.9655 27.2886 55.7284 27.2886C55.4912 27.2886 53.7527 27.2095 53.7527 27.2095L53.2786 26.3782L54.5826 24.6362Z" fill="#010101"/>
<path d="M49.0454 2.98992C48.9269 2.63364 48.0575 2 46.0425 2C43.8693 2 43.2371 2.6731 43.1977 3.02938C43.1977 3.14814 43.0396 4.41523 43 4.92972C43 4.92972 43 5.56317 43.0394 6.51324C43.079 7.14669 43.2371 7.50297 43.316 8.33448C43.395 9.20525 43.6322 9.75959 44.0667 10.4723C44.2644 10.5909 44.4223 10.7099 44.62 10.7495C45.4103 10.9077 46.7932 10.9474 47.544 10.7495C47.9785 10.6307 48.5318 9.87854 48.6503 9.20544C48.8082 8.37413 48.9663 7.78014 49.0059 7.26564C49.0848 6.75115 49.1244 5.60282 49.1638 5.286C49.2825 4.41523 49.0848 3.06903 49.0454 2.98992Z" fill="#F0EFEF"/>
<path d="M42.3729 13.1154C43.6769 13.6698 46.2058 14.2636 46.9169 14.422C47.6281 14.5804 48.774 13.8676 49.3272 13.5113C50.3152 12.8779 51.5794 13.3926 52.1723 14.0657C52.5672 14.5011 52.7255 14.7782 52.7255 14.897C52.7255 15.0552 52.2514 14.897 52.2514 14.897C51.9748 14.7782 51.6586 14.7388 51.4217 14.5802C51.1055 14.422 50.7893 14.1844 50.3154 14.2239C48.3396 14.4616 47.9445 15.1345 46.2455 14.7386C44.5466 14.3427 44.1118 13.9864 42.2944 14.1049" fill="#8AC640"/>
</g>
<defs>
<clipPath id="clip0">
<rect width="61.0869" height="70.9396" fill="white" transform="translate(0.568481 0.568481)"/>
</clipPath>
</defs>
</svg>
