<svg width="59" height="60" viewBox="0 0 59 60" fill="none" xmlns="http://www.w3.org/2000/svg">
<g clip-path="url(#clip0)">
<path d="M8.26733 53.4048L3.55988 0.609131H55.2832L50.5721 53.3975L29.3885 59.2671L8.26733 53.4048Z" fill="#E44D26"/>
<path d="M46.5373 50.0356L50.5647 4.92615H29.4215V54.7815L46.5373 50.0356Z" fill="#F16529"/>
<path d="M29.3996 11.4007H13.1838L14.9307 30.9821H29.4216V24.5075H20.8536L20.2615 17.8771H29.4216V11.4007H29.3996ZM29.4216 41.3025L29.3941 41.3099L22.1826 39.3631L21.7243 34.1992H15.2204L16.1278 44.3657L29.3922 48.0319L29.4216 48.0228V41.3025Z" fill="#EBEBEB"/>
<path d="M29.3995 30.9821H37.3736L36.6404 39.3778L29.4179 41.3264V48.0631L42.6933 44.384L44.4715 24.5038H29.4215L29.3995 30.9821ZM45.465 13.1385L45.619 11.4007H29.3959V17.8753H45.0361L45.1644 16.4198L45.465 13.1385Z" fill="white"/>
</g>
<defs>
<clipPath id="clip0">
<rect width="58.6598" height="58.6598" fill="white" transform="translate(0.0916138 0.6073)"/>
</clipPath>
</defs>
</svg>
