<svg width="60" height="61" viewBox="0 0 60 61" fill="none" xmlns="http://www.w3.org/2000/svg">
<path d="M0.157043 0.9552H59.314V60.1121H0.157043V0.9552Z" fill="#F7DF1E"/>
<path d="M15.7115 50.391L20.2384 47.6513C21.1119 49.1997 21.9064 50.51 23.8121 50.51C25.6388 50.51 26.7908 49.7955 26.7908 47.016V28.114H32.3499V47.0946C32.3499 52.8525 28.9747 55.4734 24.0504 55.4734C19.6032 55.4734 17.0218 53.1702 15.7113 50.3905L15.7115 50.391ZM35.3694 49.7952L39.8959 47.1745C41.0876 49.1205 42.6363 50.55 45.376 50.55C47.6796 50.55 49.1484 49.3982 49.1484 47.8098C49.1484 45.9038 47.6394 45.2286 45.098 44.1171L43.7085 43.5209C39.6976 41.8139 37.0372 39.6695 37.0372 35.1426C37.0372 30.9729 40.2138 27.796 45.1777 27.796C48.7119 27.796 51.2533 29.0272 53.0798 32.2437L48.7512 35.0236C47.7979 33.3161 46.7659 32.6411 45.1775 32.6411C43.5493 32.6411 42.5168 33.6736 42.5168 35.0236C42.5168 36.6913 43.5493 37.3667 45.9317 38.3992L47.3214 38.9947C52.0471 41.0201 54.7075 43.0849 54.7075 47.7305C54.7075 52.7344 50.7764 55.4741 45.495 55.4741C40.3328 55.4741 36.9972 53.0121 35.3692 49.7955" fill="black"/>
</svg>
