<svg width="97" height="86" viewBox="0 0 97 86" fill="none" xmlns="http://www.w3.org/2000/svg">
<path d="M48.3448 51.377C53.1201 51.377 56.9911 47.506 56.9911 42.7307C56.9911 37.9555 53.1201 34.0844 48.3448 34.0844C43.5696 34.0844 39.6985 37.9555 39.6985 42.7307C39.6985 47.506 43.5696 51.377 48.3448 51.377Z" fill="#00D8FF"/>
<path fill-rule="evenodd" clip-rule="evenodd" d="M48.345 25.151C59.9538 25.151 70.7381 26.8168 78.8694 29.6161C88.6665 32.989 94.6902 38.1014 94.6902 42.7307C94.6902 47.5548 88.3063 52.9861 77.7855 56.4719C69.8316 59.1071 59.3647 60.4828 48.345 60.4828C37.0468 60.4828 26.3479 59.1916 18.3044 56.4429C8.12776 52.9646 1.99829 47.463 1.99829 42.7307C1.99829 38.139 7.74962 33.066 17.409 29.6983C25.5706 26.8528 36.6212 25.151 48.3435 25.151H48.345Z" stroke="#00D8FF" stroke-width="2.73408"/>
<path fill-rule="evenodd" clip-rule="evenodd" d="M33.0413 33.9916C38.8409 23.9353 45.6712 15.4253 52.1584 9.77979C59.9745 2.97781 67.4126 0.313962 71.4227 2.62639C75.6019 5.03636 77.1175 13.28 74.8813 24.135C73.1922 32.342 69.1534 42.096 63.6482 51.6421C58.0037 61.4296 51.5406 70.0526 45.1417 75.6457C37.0447 82.7238 29.2165 85.2852 25.1172 82.9211C21.1393 80.6289 19.6182 73.1109 21.5264 63.0607C23.1388 54.569 27.185 44.1461 33.0394 33.9914L33.0413 33.9916Z" stroke="#00D8FF" stroke-width="2.73408"/>
<path fill-rule="evenodd" clip-rule="evenodd" d="M33.0558 51.6678C27.2399 41.6229 23.2801 31.4534 21.6273 23.0137C19.6377 12.845 21.0444 5.07031 25.0508 2.75117C29.2259 0.334127 37.1248 3.13792 45.4123 10.4966C51.6783 16.0601 58.1125 24.4289 63.6337 33.9661C69.2944 43.744 73.537 53.6502 75.1874 61.9871C77.2757 72.5372 75.5855 80.5982 71.4899 82.969C67.5161 85.2696 60.2441 82.8339 52.49 76.1612C45.9385 70.5236 38.9292 61.8125 33.0558 51.6676V51.6678Z" stroke="#00D8FF" stroke-width="2.73408"/>
</svg>
