<svg width="100" height="101" viewBox="0 0 100 101" fill="none" xmlns="http://www.w3.org/2000/svg">
<path d="M95.5719 60.3466C101.02 54.8989 101.019 46.0346 95.5717 40.5868C92.9329 37.9478 89.424 36.4946 85.6919 36.4946C84.8058 36.4946 83.9333 36.5754 83.0824 36.7347C86.7908 34.198 89.194 29.9325 89.194 25.1895C89.194 17.4852 82.9261 11.2173 75.2218 11.2173C70.4693 11.2173 66.1964 13.6301 63.6617 17.351C64.5003 12.9276 63.1849 8.19995 59.8244 4.83952C57.1856 2.20051 53.6767 0.747131 49.9446 0.747131C46.2125 0.747131 42.7037 2.20051 40.0648 4.83952C36.7042 8.19995 35.3889 12.9277 36.2276 17.3511C33.6929 13.6302 29.4198 11.2173 24.6673 11.2173C16.963 11.2173 10.6951 17.4852 10.6951 25.1895C10.6951 29.9327 13.0981 34.198 16.8065 36.7345C15.9556 36.5754 15.0835 36.4946 14.1972 36.4946C10.4651 36.4946 6.95637 37.948 4.31736 40.587C1.67836 43.226 0.224976 46.7348 0.224976 50.4668C0.224976 54.1989 1.67836 57.7076 4.31736 60.3467C6.95637 62.9856 10.4652 64.439 14.1972 64.439C15.0833 64.439 15.9554 64.3582 16.8065 64.1989C13.0981 66.7356 10.6951 71.0011 10.6951 75.7441C10.6951 83.4484 16.963 89.7161 24.6673 89.7161C29.4198 89.7161 33.693 87.3033 36.2276 83.5824C35.3889 88.006 36.7044 92.7338 40.0648 96.0942C42.7038 98.733 46.2127 100.186 49.9446 100.186C53.6767 100.186 57.1856 98.7331 59.8244 96.094C63.1849 92.7336 64.5002 88.0057 63.6615 83.5823C66.1962 87.3031 70.4693 89.7161 75.2218 89.7161C82.9261 89.7161 89.194 83.4484 89.194 75.7441C89.194 71.0011 86.7908 66.7356 83.0826 64.1989C83.9335 64.3582 84.8058 64.439 85.6919 64.439C89.424 64.439 92.9329 62.9856 95.5719 60.3466Z" fill="black"/>
<path d="M91.3558 44.7988C88.2263 41.6694 83.1524 41.6694 80.023 44.7988H63.6219L75.2193 33.2015C79.645 33.2015 83.2327 29.6138 83.2327 25.1879C83.2327 20.7623 79.645 17.1744 75.2193 17.1744C70.7935 17.1744 67.2057 20.7623 67.2057 25.1879L55.6085 36.7854V20.3843C58.7378 17.2548 58.7378 12.1809 55.6083 9.05146C52.4788 5.92198 47.405 5.92198 44.2755 9.05146C41.146 12.1809 41.146 17.2548 44.2755 20.3843V36.7854L32.6782 25.1879C32.6782 20.7623 29.0905 17.1744 24.6647 17.1744C20.239 17.1744 16.6511 20.7623 16.6511 25.1879C16.6511 29.6138 20.239 33.2015 24.6647 33.2015L36.2619 44.7988H19.861C16.7314 41.6693 11.6575 41.6694 8.52802 44.7989C5.39854 47.9284 5.39854 53.0023 8.52802 56.1318C11.6575 59.2612 16.7315 59.2612 19.861 56.1318H36.2619L24.6647 67.729C20.239 67.729 16.6511 71.3167 16.6511 75.7426C16.6511 80.1683 20.239 83.7561 24.6647 83.7561C29.0905 83.7561 32.6782 80.1683 32.6782 75.7426L44.2755 64.1453V80.5462C41.146 83.6757 41.146 88.7497 44.2755 91.8792C47.405 95.0087 52.479 95.0087 55.6085 91.8792C58.7378 88.7497 58.7378 83.6757 55.6085 80.5462V64.1453L67.2057 75.7426C67.2057 80.1683 70.7935 83.7561 75.2193 83.7561C79.645 83.7561 83.2327 80.1683 83.2327 75.7426C83.2327 71.3167 79.645 67.729 75.2193 67.729L63.6219 56.1318H80.023C83.1524 59.2612 88.2263 59.2612 91.3558 56.1318C94.4853 53.0023 94.4853 47.9282 91.3558 44.7988Z" fill="#FFB13B"/>
</svg>
