<svg width="121" height="121" viewBox="0 0 121 121" fill="none" xmlns="http://www.w3.org/2000/svg">
<path d="M94.3284 120.21H25.882C11.5869 120.21 0 108.623 0 94.3284V58.3321L50.0877 0H94.3251C108.623 0 120.21 11.5869 120.21 25.882V94.3251C120.21 108.623 108.623 120.21 94.3284 120.21Z" fill="url(#paint0_radial)"/>
<path d="M50.0877 0L0 52.3683V58.3321C16.9597 71.5319 43.426 76.731 61.9851 59.6878C75.3419 42.9919 67.6217 15.6507 57.6008 6.67836C55.4738 4.77502 52.9193 2.4543 50.0877 0Z" fill="#21AAF5"/>
<path d="M0 41.6629V52.3683C15.6474 58.9632 34.4436 58.9331 48.6284 45.9137C59.3939 32.4568 56.8762 12.0945 50.0877 0H39.5693L0 41.6629Z" fill="#25E0F2"/>
<path d="M25.882 0C11.5869 0 0 11.5869 0 25.882V41.6629C11.607 42.9385 23.5579 40.1302 33.3217 31.1645C40.3974 22.3191 41.536 10.5017 39.5693 0H25.882Z" fill="#18FFFF"/>
<path d="M22.0653 29.6185C22.0653 29.6185 44.8819 64.1022 64.0655 75.766C56.8061 78.1001 41.0452 87.6368 13.5637 70.7839C20.5626 80.3774 32.9543 99.6177 63.2874 97.8046C73.916 97.287 80.3974 93.9144 86.3611 91.5837C92.3249 89.2529 98.0282 89.51 102.954 98.3255C103.992 90.2881 104.249 82.7682 95.9546 74.2133C95.9546 74.2133 104.156 42.9485 69.2378 18.2787C76.4972 32.7974 80.7012 40.9851 77.2886 60.9901C69.5117 55.8044 40.788 32.6739 34.3067 25.1541C38.9749 33.4519 52.4017 51.6538 57.0665 56.3219C48.772 50.6186 22.0653 29.6185 22.0653 29.6185Z" fill="black"/>
<defs>
<radialGradient id="paint0_radial" cx="0" cy="0" r="1" gradientUnits="userSpaceOnUse" gradientTransform="translate(59.9082 -5.30391) scale(181.645 109.786)">
<stop offset="0.202" stop-color="#27F5F1"/>
<stop offset="0.29" stop-color="#25E2EE"/>
<stop offset="0.468" stop-color="#20B1E7"/>
<stop offset="0.717" stop-color="#1963DB"/>
<stop offset="0.857" stop-color="#1434D4"/>
<stop offset="1" stop-color="#0015B5"/>
</radialGradient>
</defs>
</svg>
