<svg width="111" height="109" viewBox="0 0 111 109" fill="none" xmlns="http://www.w3.org/2000/svg">
<g clip-path="url(#clip0)">
<path d="M3.31019 39.4096C3.31019 39.4096 0.705789 37.5352 3.83107 35.0323L11.1125 28.5312C11.1125 28.5312 13.1961 26.3425 15.399 28.2495L82.5925 79.0445V103.402C82.5925 103.402 82.56 107.227 77.6442 106.804L3.31019 39.4096Z" fill="#2489CA"/>
<path d="M20.6295 55.1097L3.31019 70.8315C3.31019 70.8315 1.53052 72.1534 3.31019 74.5155L11.3513 81.8183C11.3513 81.8183 13.2612 83.8662 16.0826 81.5366L34.4436 67.6351L20.6295 55.1097Z" fill="#1070B3"/>
<path d="M51.0359 55.2398L82.7987 31.0233L82.5926 6.79596C82.5926 6.79596 81.2361 1.50842 76.711 4.26054L34.4437 42.671L51.0359 55.2398Z" fill="#0877B9"/>
<path d="M77.6442 106.837C79.489 108.722 81.7244 108.104 81.7244 108.104L106.477 95.9256C109.646 93.7695 109.201 91.0932 109.201 91.0932V18.3679C109.201 15.1715 105.924 14.0663 105.924 14.0663L84.4699 3.74046C79.782 0.847478 76.7109 4.26054 76.7109 4.26054C76.7109 4.26054 80.661 1.42174 82.5926 6.79596V102.958C82.5926 103.619 82.4515 104.269 82.1693 104.854C81.605 105.991 80.3788 107.053 77.438 106.609L77.6442 106.837Z" fill="#3C99D4"/>
</g>
<defs>
<clipPath id="clip0">
<rect width="110.02" height="107.874" fill="white" transform="translate(0.165955 0.847473)"/>
</clipPath>
</defs>
</svg>
